<?xml version="1.0" encoding="UTF-8" standalone="no"?>
<!-- Created with Inkscape (http://www.inkscape.org/) -->

<svg
   xmlns:dc="http://purl.org/dc/elements/1.1/"
   xmlns:cc="http://creativecommons.org/ns#"
   xmlns:rdf="http://www.w3.org/1999/02/22-rdf-syntax-ns#"
   xmlns:svg="http://www.w3.org/2000/svg"
   xmlns="http://www.w3.org/2000/svg"
   xmlns:sodipodi="http://sodipodi.sourceforge.net/DTD/sodipodi-0.dtd"
   xmlns:inkscape="http://www.inkscape.org/namespaces/inkscape"
   width="264.58334mm"
   height="76.199997mm"
   viewBox="0 0 264.58334 76.199997"
   version="1.1"
   id="svg891"
   inkscape:version="0.92.4 (5da689c313, 2019-01-14)"
   sodipodi:docname="directx.svg">
  <defs
     id="defs885" />
  <sodipodi:namedview
     id="base"
     pagecolor="#ffffff"
     bordercolor="#666666"
     borderopacity="1.0"
     inkscape:pageopacity="0.0"
     inkscape:pageshadow="2"
     inkscape:zoom="0.35"
     inkscape:cx="170.00002"
     inkscape:cy="-530.28571"
     inkscape:document-units="mm"
     inkscape:current-layer="layer1"
     showgrid="false"
     fit-margin-top="0"
     fit-margin-left="0"
     fit-margin-right="0"
     fit-margin-bottom="0"
     inkscape:window-width="1920"
     inkscape:window-height="1012"
     inkscape:window-x="0"
     inkscape:window-y="32"
     inkscape:window-maximized="1" />
  <metadata
     id="metadata888">
    <rdf:RDF>
      <cc:Work
         rdf:about="">
        <dc:format>image/svg+xml</dc:format>
        <dc:type
           rdf:resource="http://purl.org/dc/dcmitype/StillImage" />
        <dc:title></dc:title>
      </cc:Work>
    </rdf:RDF>
  </metadata>
  <g
     inkscape:label="Layer 1"
     inkscape:groupmode="layer"
     id="layer1"
     transform="translate(116.41667,67.671425)">
    <path
       style="fill:#ffffff;stroke-width:0.26458332"
       d="m -12.964584,6.802578 c -5.278554,-1.4494457 -8.809276,-5.1608751 -10.36406,-10.8945018 -0.836623,-3.0852375 -0.835914,-9.1747212 0.0013,-12.1061192 0.906981,-3.17527 2.270866,-5.554879 4.405384,-7.686209 3.119845,-3.115098 6.188107,-4.364257 10.719853,-4.364257 8.7374465,0 13.4014924,5.289714 13.9389723,15.808854 l 0.1656053,3.241146 h -12.079351 c -11.3285376,0 -12.0792476,0.02878 -12.0773746,0.463021 0.0056,1.3005511 0.628933,4.0649733 1.198279,5.3143914 1.31195,2.87903714 3.313216,4.6136587 6.320036,5.4779651 2.34061,0.6728063 6.5424028,0.4332129 9.0161485,-0.5141145 1.0186458,-0.3900911 2.268802,-0.98179466 2.778125,-1.31489186 0.5093229,-0.3330998 1.2534635,-0.8180546 1.6536458,-1.0776823 L 3.4396065,-1.3218686 V 1.349042 4.0199525 L 2.050544,4.8215685 c -0.7639844,0.4408858 -2.3415625,1.1149013 -3.5057292,1.4978063 -1.8217356,0.5991886 -2.6696644,0.7091944 -6.0854198,0.7894928 -2.961655,0.069623 -4.338018,-0.0081 -5.423958,-0.3062896 z M 2e-6,-14.441582 c 0,-1.111769 -0.616212,-3.680013 -1.1205951,-4.67041 -0.9537383,-1.872742 -1.8000134,-2.750309 -3.444875,-3.572256 -1.3748888,-0.687038 -1.8998724,-0.801761 -3.6689509,-0.801761 -2.804213,0 -4.594233,0.689507 -6.415037,2.471039 -1.53017,1.497168 -2.960844,4.117102 -3.237928,5.929482 l -0.171916,1.124479 h 9.02965 c 8.5489173,0 9.029652,-0.02558 9.029652,-0.480573 z M 25.029882,6.7839275 C 20.780694,5.7557752 17.065807,2.737189 15.129218,-1.2610092 12.829423,-6.0090603 12.594896,-11.50698 14.449858,-17.186883 c 1.737662,-5.320731 6.339652,-9.4415 11.934058,-10.686137 2.872068,-0.638977 8.008821,-0.422932 10.525461,0.442682 l 1.852083,0.637037 0.0751,2.844271 c 0.0413,1.564349 0.0097,2.844271 -0.07015,2.844271 -0.07989,0 -0.768525,-0.348163 -1.530305,-0.773695 -2.260664,-1.262814 -4.144579,-1.680699 -7.043714,-1.562425 -2.174822,0.08873 -2.801893,0.224996 -4.326914,0.94031 -2.358895,1.106446 -4.205102,2.973922 -5.369682,5.431547 -1.087445,2.29485 -1.445786,4.02177 -1.445786,6.967561 0,4.2594454 1.127842,7.2993359 3.562424,9.60186184 2.155627,2.03870456 3.921397,2.76366556 7.050791,2.89480626 3.414599,0.1430893 5.482889,-0.4512469 8.502931,-2.44337156 l 0.727605,-0.4799541 V 2.2557452 5.039609 L 36.975531,5.8351105 C 35.920497,6.2726361 34.350816,6.759996 33.487346,6.9181348 31.338345,7.3117078 26.921443,7.241617 25.029882,6.7839275 Z m 31.32637,0.020161 C 55.555887,6.5826696 54.424794,6.0717909 53.84271,5.6688014 52.561767,4.7819789 51.197589,2.5942928 50.815988,0.81494874 50.643533,0.01081914 50.535419,-4.7703764 50.535419,-11.592779 v -11.099478 h -2.910417 -2.910417 v -2.513541 -2.513542 h 2.910417 2.910417 v -4.079224 -4.079221 l 2.448049,-0.815571 c 1.346428,-0.448561 2.596584,-0.815567 2.778125,-0.815567 0.251817,0 0.330076,1.160521 0.330076,4.894791 v 4.894792 h 4.233333 4.233336 v 2.513542 2.513541 h -4.244377 -4.244372 l 0.07719,10.914063 c 0.0742,10.4911631 0.09869,10.95507024 0.632158,11.97239584 0.792398,1.51109896 1.962232,2.11757156 4.075237,2.11270586 1.102926,-0.00265 2.042805,-0.1686216 2.620338,-0.4630208 0.4953,-0.252484 0.946253,-0.4590601 1.002115,-0.4590601 0.05586,0 0.06734,1.0896415 0.0255,2.4214243 l -0.07608,2.4214217 -1.058336,0.3722979 C 61.740341,7.1724444 58.0736,7.2791905 56.356253,6.8040888 Z m 60.060418,-14.81197 c 0,-8.0764065 -0.0675,-14.6843755 -0.14995,-14.6843755 -0.0825,0 -0.52895,0.28896 -0.99218,0.642131 -0.97021,0.739688 -4.99128,2.692911 -6.06777,2.947395 l -0.7276,0.172008 v -1.889072 c 0,-1.561407 0.0803,-1.916988 0.46302,-2.050031 2.24657,-0.780979 5.29093,-2.299825 7.40962,-3.696695 1.40312,-0.925092 2.82516,-1.681986 3.16008,-1.681986 h 0.60895 v 17.4625 17.4625005 h -1.85209 -1.85208 z m 7.72782,12.0750383 c 0.22791,-4.73308096 1.91325,-7.1235279 8.54405,-12.1186946 3.79439,-2.8584132 5.19772,-4.3254032 6.23484,-6.5176722 1.30971,-2.768486 1.02454,-6.575149 -0.62507,-8.343622 -1.18808,-1.273699 -2.53226,-1.759585 -4.81602,-1.740871 -2.5361,0.0208 -4.22214,0.685665 -6.55294,2.58413 l -1.51685,1.235488 0.004,-2.053564 0.004,-2.053566 1.35823,-0.996519 c 2.08873,-1.532485 4.44279,-2.139611 7.72933,-1.993442 3.20403,0.142497 5.02543,0.839124 6.77908,2.592769 1.56001,1.560009 2.18534,3.11268 2.33083,5.787305 0.30401,5.589122 -1.44565,8.414216 -8.41593,13.5887592 -5.42059,4.0241008 -6.61403,5.35389934 -7.00931,7.8101905 l -0.18095,1.1244791 h 8.48992 8.48992 V 4.8244101 6.6764935 H 134.5052 124.01878 l 0.12565,-2.6093367 z M -112.97709,-17.379418 v -23.833674 h 7.23009 c 11.219385,0 15.626212,0.659308 20.551163,3.074667 2.073259,1.016794 2.884991,1.60859 4.634117,3.378507 3.379906,3.420097 5.057597,7.335088 5.703834,13.310259 1.458077,13.4814888 -5.146431,23.6894975 -17.478662,27.0152306 -2.423101,0.6534573 -2.853187,0.6825668 -11.578562,0.7836773 l -9.06198,0.1050105 z m 18.145221,18.13074244 c 5.598438,-1.1914188 9.7927,-4.22004344 12.057491,-8.70656714 1.469641,-2.9113453 1.899603,-5.1212593 1.914895,-9.8422253 0.01177,-3.637944 -0.071,-4.529719 -0.588607,-6.34071 -1.328143,-4.646843 -3.805336,-7.730712 -7.720507,-9.611294 -3.353112,-1.610609 -5.249628,-1.935557 -12.232973,-2.095995 l -6.01927,-0.138287 v 18.507901 c 0,10.1793435 0.0893,18.6023036 0.19844,18.7176884 0.32514,0.3437361 10.3319,-0.052409 12.390531,-0.49051096 z m 30.337736,-11.33889644 0.06809,-16.999479 h 2.778125 2.778125 l 0.06809,16.999479 0.06809,16.9994795 h -2.914306 -2.914306 z m 18.192049,0.06615 V -27.45476 h 2.910417 2.910416 l 0.0097,3.108854 0.0097,3.108854 0.657312,-1.35808 c 1.006819,-2.080188 2.557939,-3.667212 4.536051,-4.641032 1.465898,-0.721659 2.045978,-0.860057 3.624093,-0.86465 1.033365,-0.003 2.206268,0.08386 2.60645,0.193042 l 0.727605,0.198509 v 2.905376 c 10e-6,1.597957 -0.06371,2.905377 -0.14159,2.905377 -0.07788,0 -0.459597,-0.20836 -0.848259,-0.463021 -1.006636,-0.659572 -4.876739,-0.649198 -6.101818,0.01635 -1.300213,0.706377 -2.857355,2.373448 -3.616804,3.872143 -1.337802,2.640028 -1.454211,3.81853 -1.458444,14.7646231 l -0.0039,10.1203178 h -2.910416 -2.910417 z m 123.044064,5.007876 7.953235,-11.925451 -7.290314,-11.748288 c -4.009673,-6.461559 -7.290313,-11.814186 -7.290313,-11.894725 0,-0.08054 1.573834,-0.113216 3.497408,-0.07261 l 3.497411,0.07383 4.715367,8.069791 c 2.593454,4.438386 5.132797,8.88146 5.642991,9.873499 l 0.927624,1.80371 3.397075,-5.640168 c 1.868392,-3.102092 4.572908,-7.545166 6.01004,-9.873499 l 2.612956,-4.233333 3.26964,-0.07454 c 2.66004,-0.06064 3.24404,-0.0079 3.1324,0.283083 -0.0755,0.196694 -3.38373,5.46869 -7.351672,11.715545 -3.967938,6.246857 -7.214434,11.487597 -7.214434,11.646088 0,0.212788 10.785116,17.46825194 14.580116,23.3272222 l 0.3856,0.5953125 h -3.53825 -3.53826 l -5.725729,-9.591159 c -3.149153,-5.2751307 -5.84327,-9.8199157 -5.986928,-10.0995187 -0.238654,-0.464508 -0.300577,-0.43026 -0.717592,0.396875 -0.251021,0.497885 -3.015803,5.0426697 -6.143964,10.0995187 l -5.687563,9.1942708 h -3.545041 -3.545038 z m 37.61821,-24.60339 c -3.1672,-1.608256 -4.11358,-5.382993 -2.09558,-8.358489 2.07037,-3.052733 6.29716,-3.297609 8.86346,-0.513501 2.34451,2.543493 1.8608,6.503911 -1.03988,8.514083 -1.50347,1.041903 -4.06569,1.202002 -5.728,0.357907 z m 4.35436,-0.264467 c 0.90388,-0.340778 2.3732,-1.707457 2.88407,-2.682613 0.4741,-0.904965 0.48295,-3.143536 0.0168,-4.259104 -0.45702,-1.093824 -1.96453,-2.41914 -3.22479,-2.835062 -1.24184,-0.409845 -3.0873,-0.169283 -4.25964,0.555262 -0.97545,0.602863 -2.05962,2.271403 -2.33479,3.593208 -0.22457,1.07882 0.26491,2.904927 1.06071,3.957182 1.2247,1.619407 3.94005,2.394072 5.8576,1.671127 z m -4.14996,-4.878565 v -3.571875 h 1.68411 c 2.0403,0 3.07839,0.631029 3.07839,1.871287 0,0.75125 -0.61279,1.615287 -1.35599,1.911956 -0.25901,0.103391 -0.27854,0.208182 -0.0678,0.363802 0.16282,0.120219 0.61131,0.843659 0.99665,1.607643 0.67118,1.330701 0.67842,1.389062 0.17237,1.389062 -0.35639,0 -0.71218,-0.365826 -1.09362,-1.124479 -0.73889,-1.469588 -1.26801,-2.05052 -1.86764,-2.05052 -0.42025,0 -0.48816,0.220839 -0.48816,1.5875 0,1.41111 -0.0588,1.587499 -0.52917,1.587499 -0.50303,0 -0.52916,-0.176389 -0.52916,-3.571874 z m 3.38666,-0.714375 c 0.17463,-0.174625 0.3175,-0.567531 0.3175,-0.873125 0,-0.820123 -0.51047,-1.190625 -1.64041,-1.190625 h -1.00542 v 1.190625 1.190625 h 1.00542 c 0.55298,0 1.14829,-0.142875 1.32291,-0.3175 z m -180.408369,-0.197969 c -1.858499,-0.563943 -2.631054,-1.594143 -2.629392,-3.506286 0.0013,-1.458222 0.799931,-2.776858 1.980681,-3.270207 1.227643,-0.512941 1.879156,-0.480404 3.201863,0.159908 2.887663,1.397894 2.447002,5.73702 -0.670575,6.603086 -1.05532,0.293169 -0.963097,0.292508 -1.882577,0.01349 z m -16.968944,-9.389784 c -1.533914,-0.589247 -2.483358,-1.423067 -3.29317,-2.89213 -0.662702,-1.202189 -0.746424,-1.6156 -0.730438,-3.606782 0.01209,-1.506511 0.165565,-2.578454 0.464875,-3.24704 0.682242,-1.523948 2.180476,-3.018001 3.560472,-3.550521 1.390255,-0.536482 4.227975,-0.601882 5.407133,-0.124617 0.624451,0.252745 0.727604,0.445473 0.727604,1.35938 0,0.585685 -0.04592,1.064882 -0.102047,1.064882 -0.05613,0 -0.443076,-0.17795 -0.859896,-0.395445 -2.480998,-1.294583 -5.215353,-0.430087 -6.479937,2.048702 -0.446621,0.875457 -0.530881,1.44952 -0.455638,3.104453 0.07963,1.751515 0.197037,2.167681 0.854792,3.030034 1.329451,1.742976 3.801845,2.253369 5.852101,1.208089 0.570865,-0.291042 1.079477,-0.529167 1.130253,-0.529167 0.05078,0 0.05537,0.445639 0.01021,0.990308 -0.06603,0.796246 -0.234741,1.063128 -0.860957,1.36191 -1.116388,0.532654 -4.042574,0.632302 -5.225349,0.177944 z m 21.629902,-0.01454 c -1.484426,-0.528801 -2.282341,-1.192244 -3.190298,-2.652637 -0.744987,-1.198269 -0.79375,-1.440511 -0.79375,-3.943281 0,-2.238076 0.09316,-2.840676 0.579726,-3.749966 1.234853,-2.307684 3.234272,-3.405971 6.167149,-3.387635 4.287364,0.02681 6.636329,2.918155 6.291064,7.743691 -0.144335,2.017281 -0.656706,3.188013 -2.016122,4.606704 -1.558637,1.6266 -4.649253,2.233996 -7.037769,1.383124 z m 5.063331,-2.15089 c 1.225799,-0.91519 1.791785,-2.370029 1.788822,-4.598068 -0.0021,-1.605205 -0.124325,-2.199234 -0.639482,-3.108831 -1.425662,-2.517252 -4.955098,-2.890283 -6.856526,-0.724675 -2.123972,2.419068 -1.592091,7.032469 0.988001,8.569685 1.233932,0.735173 3.643985,0.664642 4.719185,-0.138111 z m 7.885954,2.187444 c -1.021516,-0.306523 -1.061138,-0.361029 -1.13896,-1.566786 l -0.08063,-1.249218 1.006669,0.594933 c 0.797493,0.471313 1.409998,0.594935 2.947699,0.594935 1.720529,0 1.998556,-0.07096 2.447398,-0.624626 1.075243,-1.32636 0.281168,-2.55745 -2.321705,-3.599453 -2.296705,-0.919431 -3.230529,-1.600235 -3.684159,-2.685923 -0.476258,-1.139851 -0.462968,-1.80349 0.0581,-2.901571 0.853492,-1.798601 3.799776,-2.805474 6.542913,-2.236001 l 1.498711,0.311132 v 1.178661 1.178661 l -0.859896,-0.454169 c -1.170154,-0.618034 -3.575743,-0.626754 -4.508595,-0.01634 -0.541491,0.354324 -0.716923,0.6842 -0.716923,1.348055 0,1.116979 0.396658,1.460273 3.175,2.747856 2.915613,1.351198 3.307289,1.798831 3.307289,3.779748 0,1.340675 -0.100121,1.646856 -0.76572,2.341588 -1.399913,1.461196 -4.406265,2.008965 -6.907197,1.25852 z m 14.240658,-0.07514 c -0.629205,-0.222949 -1.561652,-0.886823 -2.165098,-1.541486 -3.167171,-3.435972 -2.151272,-9.764757 1.849334,-11.52087 1.916197,-0.841137 4.660133,-0.869289 6.20849,-0.0637 2.365746,1.230867 3.372001,3.198901 3.369435,6.589936 -0.0024,3.197441 -1.576353,5.636497 -4.253844,6.591999 -1.295818,0.462431 -3.618677,0.436514 -5.008317,-0.05588 z m 4.624044,-1.790443 c 1.684994,-0.876702 2.437773,-2.434545 2.428446,-5.025558 -0.01079,-2.995254 -1.398428,-4.809776 -3.887443,-5.083321 -1.781077,-0.195741 -3.406918,0.670378 -4.231108,2.254 -1.143971,2.198063 -0.701644,5.779586 0.891751,7.220497 1.117518,1.010572 3.47603,1.322388 4.798354,0.634382 z m 19.1862737,1.836559 c -1.5175627,-0.660033 -1.7657157,-1.557462 -1.8865637,-6.822636 l -0.107794,-4.696354 h -1.02883 c -0.999416,0 -1.028827,-0.02647 -1.028827,-0.926042 0,-0.903993 0.02519,-0.926041 1.058331,-0.926041 h 1.058333 v -1.693909 c 0,-1.662079 0.01566,-1.699367 0.833231,-1.984375 1.4986719,-0.52244 1.5480193,-0.468442 1.5480193,1.693909 v 1.984375 h 1.7365583 1.7365557 l -0.082912,0.859895 c -0.082905,0.859854 -0.082987,0.8599 -1.7365557,0.938667 l -1.6536458,0.07877 v 4.485293 c 0,4.21506 0.033745,4.519034 0.5600912,5.045381 0.4530143,0.453014 0.7817987,0.535101 1.7197916,0.429376 1.1285009,-0.127199 1.1597032,-0.110485 1.1597032,0.621225 0,0.472632 -0.1901005,0.853677 -0.5117756,1.025833 -0.7103983,0.380194 -2.3668831,0.324531 -3.37371,-0.113368 z M -113.24167,-54.971425 v -9.524999 h 1.42281 c 0.82853,0 1.52723,0.138139 1.6728,0.330729 0.33039,0.437091 6.42939,14.444139 6.42939,14.765819 0,0.137106 0.11906,0.249285 0.26458,0.249285 0.14552,0 0.26494,-0.148829 0.26537,-0.33073 4.2e-4,-0.181901 1.46365,-3.604947 3.25159,-7.60677 l 3.25081,-7.276041 1.378617,-0.07997 1.378617,-0.07997 v 9.538826 9.538827 h -1.058333 -1.058334 l -0.0024,-7.871354 -0.0024,-7.871354 -1.273537,2.910417 c -5.42904,12.407029 -5.65052,12.862869 -6.20951,12.780138 -0.43251,-0.06401 -1.16865,-1.491207 -3.65782,-7.091597 -1.71399,-3.856302 -3.27089,-7.415866 -3.45977,-7.910144 -0.29106,-0.761649 -0.33065,0.317585 -0.2596,7.077604 l 0.0838,7.97629 h -1.2083 -1.20831 z m 24.077084,2.778125 v -6.746874 h 1.058333 1.058334 v 6.746874 6.746875 h -1.058334 -1.058333 z m 19.049999,0 v -6.746874 h 1.058336 1.058334 v 1.252044 1.252043 l 0.669046,-0.984589 c 0.822479,-1.210385 1.87932,-1.784082 3.286564,-1.784082 h 1.071473 v 1.199934 c 0,1.104352 -0.04077,1.178117 -0.511773,0.926042 -1.228222,-0.657325 -2.811296,-0.02378 -3.762163,1.50563 -0.577107,0.928234 -0.627362,1.320218 -0.713182,5.562665 l -0.09233,4.564062 h -1.032153 -1.032152 z m 52.652086,0.941255 v -5.80562 l -1.124479,-0.08136 c -1.055462,-0.07637 -1.129567,-0.134137 -1.207389,-0.941255 -0.0826,-0.856627 -0.07832,-0.859895 1.124479,-0.859895 h 1.207389 v -1.548018 c 0,-0.85141 0.135263,-1.952738 0.300583,-2.447396 0.631743,-1.890239 2.427258,-3.032869 4.461917,-2.839479 0.848932,0.08069 0.932593,0.165809 1.004705,1.022245 l 0.07866,0.934227 -1.028483,-0.09808 c -0.804863,-0.07676 -1.195898,0.04592 -1.798455,0.564207 -0.710573,0.611198 -0.769969,0.801828 -0.769969,2.471146 v 1.808858 l 1.521354,0.07935 1.521354,0.07935 v 0.912838 0.912838 h -1.5875 -1.5875 v 5.820833 5.820833 h -1.058333 -1.058334 z M 1.3864821,-53.41306 c -2.8930759,-1.432047 -3.4877322,-5.189752 -1.18559,-7.491893 1.7739069,-1.773907 4.516935,-1.9302 6.3060819,-0.35931 1.2578556,1.104413 1.6951113,2.04516 1.6951113,3.647005 0,3.627182 -3.5532801,5.819019 -6.8156032,4.204198 z m 4.4470664,-0.567076 c 1.2336701,-0.831369 1.9420364,-2.15405 1.9367738,-3.616395 -0.00857,-2.381079 -1.5239232,-3.999059 -3.9324862,-4.198795 -1.6657875,-0.138141 -2.71136,0.337567 -3.758012,1.709798 -0.9652926,1.265565 -1.0569549,3.590928 -0.1877854,4.763972 1.462233,1.973457 4.1149244,2.572357 5.9415098,1.34142 z m -4.1885658,-3.703268 0.074811,-2.976562 1.4026304,0.03742 c 1.5735458,0.04198 2.433828,0.597697 2.433828,1.572191 0,0.609005 -0.5063358,1.288689 -1.1197538,1.503113 -0.2540608,0.08881 -0.2308489,0.238986 0.09566,0.618936 0.2371142,0.275922 0.6271233,0.888629 0.8666903,1.361572 0.4129643,0.815256 0.4104904,0.859896 -0.047662,0.859896 -0.3106446,0 -0.6898428,-0.425251 -1.0616909,-1.190625 -0.4575598,-0.941798 -0.7174044,-1.190625 -1.2433458,-1.190625 -0.6116373,0 -0.6648979,0.09537 -0.6648979,1.190625 0,0.893251 -0.1012878,1.190625 -0.4055401,1.190625 -0.3447336,0 -0.3943245,-0.446312 -0.3307292,-2.976563 z m 2.9570786,-0.79375 c 0.4467648,-0.713249 -0.1174036,-1.374379 -1.2554188,-1.471179 l -0.9653905,-0.08212 v 1.090277 1.090276 l 0.9653905,-0.08212 c 0.5626602,-0.04786 1.0863818,-0.275276 1.2554188,-0.545139 z m -93.2542363,-4.256587 c -0.735037,-0.364536 -1.003292,-1.568082 -0.487919,-2.189069 0.506839,-0.610704 1.885022,-0.361727 2.267456,0.40963 0.59024,1.190497 -0.589137,2.369809 -1.779537,1.779439 z"
       id="path1447"
       inkscape:connector-curvature="0" />
  </g>
</svg>
