<?xml version="1.0" encoding="UTF-8" standalone="no"?>
<!-- Created with Inkscape (http://www.inkscape.org/) -->

<svg
   xmlns:dc="http://purl.org/dc/elements/1.1/"
   xmlns:cc="http://creativecommons.org/ns#"
   xmlns:rdf="http://www.w3.org/1999/02/22-rdf-syntax-ns#"
   xmlns:svg="http://www.w3.org/2000/svg"
   xmlns="http://www.w3.org/2000/svg"
   xmlns:sodipodi="http://sodipodi.sourceforge.net/DTD/sodipodi-0.dtd"
   xmlns:inkscape="http://www.inkscape.org/namespaces/inkscape"
   width="112.13593mm"
   height="73.055603mm"
   viewBox="0 0 112.13593 73.055603"
   version="1.1"
   id="svg875"
   inkscape:version="0.92.4 (5da689c313, 2019-01-14)"
   sodipodi:docname="input.svg">
  <defs
     id="defs869" />
  <sodipodi:namedview
     id="base"
     pagecolor="#ffffff"
     bordercolor="#666666"
     borderopacity="1.0"
     inkscape:pageopacity="0.0"
     inkscape:pageshadow="2"
     inkscape:zoom="0.35"
     inkscape:cx="-589.51814"
     inkscape:cy="178.05783"
     inkscape:document-units="mm"
     inkscape:current-layer="layer1"
     showgrid="false"
     fit-margin-top="0"
     fit-margin-left="0"
     fit-margin-right="0"
     fit-margin-bottom="0"
     inkscape:window-width="1920"
     inkscape:window-height="1012"
     inkscape:window-x="0"
     inkscape:window-y="32"
     inkscape:window-maximized="1" />
  <metadata
     id="metadata872">
    <rdf:RDF>
      <cc:Work
         rdf:about="">
        <dc:format>image/svg+xml</dc:format>
        <dc:type
           rdf:resource="http://purl.org/dc/dcmitype/StillImage" />
        <dc:title></dc:title>
      </cc:Work>
    </rdf:RDF>
  </metadata>
  <g
     inkscape:label="Layer 1"
     inkscape:groupmode="layer"
     id="layer1"
     transform="translate(-84.539174,-122.88886)">
    <path
       style="fill:#ffffff;stroke-width:0.26458332"
       d="m 84.954948,195.53255 c -0.372853,-0.37286 -0.415774,-3.37177 -0.415774,-29.05125 0,-21.91926 0.07447,-28.70994 0.3175,-28.95297 0.24398,-0.24398 9.06639,-0.3175 38.099996,-0.3175 h 37.7825 l 5.3e-4,-1.91823 c 5.3e-4,-2.27595 0.46566,-3.36484 1.94169,-4.54525 l 1.01606,-0.81256 4.73863,-0.0876 4.73863,-0.0876 v -2.48846 -2.48845 l -8.50408,-0.0698 c -7.87638,-0.0647 -8.52574,-0.10513 -8.7974,-0.54833 -0.23481,-0.38308 -0.19088,-0.55458 0.22028,-0.85989 0.68947,-0.51199 18.10791,-0.57176 18.61578,-0.0639 0.21107,0.21107 0.3175,1.36407 0.3175,3.43958 v 3.12209 h 4.37413 c 4.53345,0 5.63568,0.20437 6.8322,1.26687 0.92261,0.81925 1.48168,2.45586 1.48786,4.35553 l 0.006,1.78594 h 4.22402 c 3.92375,0 4.24374,0.0368 4.50142,0.51831 0.18981,0.35466 0.2554,9.54712 0.20775,29.11385 -0.0611,25.07933 -0.11845,28.62637 -0.46653,28.84638 -0.24677,0.15598 -21.27903,0.25238 -55.60974,0.25491 -49.844193,0.004 -55.253287,-0.0364 -55.628633,-0.41174 z M 194.87042,166.57958 V 139.06291 H 140.63084 86.391257 v 27.51667 27.51666 h 54.239583 54.23958 z M 90.3416,187.85636 c -0.677068,-0.81583 0.02249,-1.29271 2.02487,-1.38036 2.423162,-0.10607 3.020621,0.0621 3.020621,0.8501 0,0.80757 -0.413187,0.94931 -2.767367,0.94931 -1.438484,0 -2.018956,-0.10678 -2.278124,-0.41905 z m 7.945559,0.01 c -0.259085,-0.31218 -0.28023,-0.54863 -0.07776,-0.86961 0.225502,-0.3575 0.722831,-0.44084 2.630491,-0.44084 h 2.35241 v 0.79375 0.79375 l -2.27464,0.0759 c -1.838586,0.0613 -2.342872,-0.006 -2.630498,-0.3529 z m 7.937501,0 c -0.25909,-0.31218 -0.28023,-0.54863 -0.0778,-0.86961 0.2255,-0.3575 0.72283,-0.44084 2.63049,-0.44084 h 2.35241 v 0.79375 0.79375 l -2.27464,0.0759 c -1.83859,0.0613 -2.34287,-0.006 -2.6305,-0.3529 z m 8.45861,-0.01 c -0.25235,-0.30407 -0.27149,-0.54002 -0.0698,-0.8599 0.25174,-0.39917 1.42572,-0.44778 12.42007,-0.51424 6.67813,-0.0404 12.40995,-0.008 12.73737,0.0712 0.7054,0.17133 0.83423,1.30913 0.1768,1.56141 -0.23019,0.0883 -5.93061,0.1606 -12.66761,0.1606 -10.85342,0 -12.28871,-0.0477 -12.59687,-0.41905 z m 29.16557,0.18664 c -0.19463,-0.12337 -0.3137,-0.5085 -0.26458,-0.85585 0.0865,-0.61162 0.16351,-0.63153 2.4417,-0.63153 1.90766,0 2.40499,0.0833 2.63049,0.44084 0.55168,0.8746 -0.22156,1.27933 -2.43561,1.2749 -1.10997,-0.002 -2.17737,-0.10499 -2.372,-0.22836 z m 7.9375,0 c -0.19463,-0.12337 -0.3137,-0.5085 -0.26458,-0.85585 0.0865,-0.61162 0.16351,-0.63153 2.4417,-0.63153 1.90766,0 2.40499,0.0833 2.63049,0.44084 0.55168,0.8746 -0.22156,1.27933 -2.43561,1.2749 -1.10997,-0.002 -2.17737,-0.10499 -2.372,-0.22836 z m 7.96065,0.0572 c -0.1819,-0.0734 -0.33073,-0.41892 -0.33073,-0.76783 0,-0.79498 0.59153,-0.96267 3.02062,-0.85635 2.00238,0.0876 2.70194,0.56453 2.02487,1.38035 -0.26492,0.3192 -0.82863,0.41407 -2.36591,0.39816 -1.10997,-0.0115 -2.16695,-0.0809 -2.34885,-0.15433 z m 7.9375,0 c -0.1819,-0.0734 -0.33073,-0.41892 -0.33073,-0.76783 0,-0.79498 0.59153,-0.96267 3.02062,-0.85635 2.00238,0.0876 2.70194,0.56453 2.02487,1.38035 -0.26492,0.3192 -0.82863,0.41407 -2.36591,0.39816 -1.10997,-0.0115 -2.16695,-0.0809 -2.34885,-0.15433 z m 7.9375,0 c -0.1819,-0.0734 -0.33073,-0.41892 -0.33073,-0.76783 0,-0.79498 0.59153,-0.96267 3.02062,-0.85635 2.00238,0.0876 2.70194,0.56453 2.02487,1.38035 -0.26492,0.3192 -0.82863,0.41407 -2.36591,0.39816 -1.10997,-0.0115 -2.16695,-0.0809 -2.34885,-0.15433 z m 9.56046,-0.20619 c -0.0805,-0.20978 -0.1049,-0.59674 -0.0542,-0.85991 0.0806,-0.41871 0.38545,-0.47847 2.44094,-0.47847 1.90427,0 2.40141,0.0834 2.62686,0.44085 0.2018,0.31991 0.18268,0.55579 -0.0697,0.85989 -0.48113,0.57973 -4.72346,0.61202 -4.94388,0.0376 z m -91.329943,-8.13816 c -0.448233,-0.44824 -0.394142,-1.18398 0.101016,-1.374 0.230182,-0.0883 1.232476,-0.16059 2.227318,-0.16059 0.994841,0 1.997136,0.0723 2.227318,0.16059 0.495157,0.19002 0.549248,0.92576 0.101015,1.374 -0.424199,0.42419 -4.232468,0.42419 -4.656667,0 z m 7.937503,0 c -0.44824,-0.44824 -0.39414,-1.18398 0.10101,-1.374 0.23019,-0.0883 1.23248,-0.16059 2.22732,-0.16059 0.99484,0 1.99714,0.0723 2.22732,0.16059 0.49516,0.19002 0.54925,0.92576 0.10102,1.374 -0.4242,0.42419 -4.23247,0.42419 -4.65667,0 z m 7.9375,0 c -0.44823,-0.44824 -0.39414,-1.18398 0.10101,-1.374 0.23019,-0.0883 1.23248,-0.16059 2.22732,-0.16059 0.99484,0 1.99714,0.0723 2.22732,0.16059 0.49516,0.19002 0.54925,0.92576 0.10101,1.374 -0.42419,0.42419 -4.23246,0.42419 -4.65666,0 z m 7.9375,0 c -0.51533,-0.51534 -0.36959,-1.24686 0.28093,-1.41012 0.32913,-0.0826 1.48873,-0.11465 2.57688,-0.0712 1.65755,0.0662 1.99318,0.15617 2.06925,0.55473 0.18064,0.94642 -0.43622,1.24406 -2.57821,1.24406 -1.22716,0 -2.15705,-0.1257 -2.34885,-0.3175 z m 7.86617,-0.10156 c -0.25238,-0.30411 -0.2715,-0.53998 -0.0697,-0.85989 0.22545,-0.35741 0.7226,-0.44085 2.62687,-0.44085 2.05049,0 2.36043,0.0604 2.44041,0.47574 0.18268,0.94857 -0.43436,1.24406 -2.59791,1.24406 -1.54938,0 -2.13705,-0.10264 -2.39966,-0.41906 z m 7.9375,0 c -0.25238,-0.30411 -0.2715,-0.53998 -0.0697,-0.85989 0.22551,-0.3575 0.72284,-0.44085 2.6305,-0.44085 2.27818,0 2.35523,0.0199 2.4417,0.63154 0.12586,0.8901 -0.33494,1.07958 -2.63658,1.08421 -1.52223,0.003 -2.10358,-0.0989 -2.36591,-0.41501 z m 7.9375,0 c -0.25238,-0.30411 -0.2715,-0.53998 -0.0697,-0.85989 0.22551,-0.3575 0.72284,-0.44085 2.63049,-0.44085 2.27819,0 2.35524,0.0199 2.44171,0.63154 0.12586,0.8901 -0.33494,1.07958 -2.63658,1.08421 -1.52223,0.003 -2.10358,-0.0989 -2.36591,-0.41501 z m 7.9375,0 c -0.25238,-0.30411 -0.2715,-0.53998 -0.0697,-0.85989 0.22551,-0.3575 0.72284,-0.44085 2.63049,-0.44085 2.27819,0 2.35524,0.0199 2.44171,0.63154 0.12586,0.8901 -0.33494,1.07958 -2.63658,1.08421 -1.52223,0.003 -2.10358,-0.0989 -2.36591,-0.41501 z m 7.45212,-0.0627 c -0.19113,-0.35713 -0.17461,-0.63319 0.0568,-0.94971 0.2658,-0.36351 0.69307,-0.4316 2.30485,-0.36728 l 1.97856,0.0789 v 0.79375 0.79375 l -2.0354,0.077 c -1.77596,0.0672 -2.06975,0.0128 -2.30486,-0.42647 z m 6.9554,0.10034 c -0.0805,-0.20978 -0.1049,-0.59674 -0.0542,-0.8599 0.0806,-0.41873 0.38545,-0.47848 2.44094,-0.47848 1.90428,0 2.40142,0.0834 2.62687,0.44085 0.20179,0.31991 0.18267,0.55579 -0.0697,0.85989 -0.48113,0.57973 -4.72347,0.61203 -4.94388,0.0376 z m 7.28832,-0.0376 c -0.25238,-0.3041 -0.2715,-0.53998 -0.0697,-0.85989 0.2255,-0.3575 0.72283,-0.44085 2.63049,-0.44085 2.27819,0 2.35523,0.0199 2.4417,0.63154 0.12586,0.8901 -0.33494,1.07958 -2.63658,1.08421 -1.52223,0.003 -2.10358,-0.0989 -2.36591,-0.41501 z m 8.58668,0.0376 c -0.0805,-0.20978 -0.1049,-0.59674 -0.0542,-0.8599 0.0851,-0.44195 0.48356,-0.47848 5.21906,-0.47848 4.49687,0 5.16109,0.0542 5.40499,0.44085 0.2018,0.31991 0.18268,0.55579 -0.0697,0.85989 -0.49578,0.59738 -10.27188,0.63242 -10.50012,0.0376 z m -90.607516,-8.23975 c -0.252381,-0.30409 -0.271503,-0.53997 -0.0697,-0.85988 0.223002,-0.35355 0.712071,-0.44086 2.469362,-0.44086 1.757291,0 2.24636,0.0873 2.469361,0.44086 0.55367,0.87774 -0.220967,1.27894 -2.469361,1.27894 -1.549374,0 -2.137045,-0.10262 -2.399657,-0.41906 z m 7.74424,0.10156 c -0.448233,-0.44823 -0.394142,-1.18397 0.101015,-1.37398 0.230182,-0.0883 1.297557,-0.1606 2.37194,-0.1606 1.659211,0 1.994601,0.0769 2.226791,0.51078 0.20635,0.38558 0.17157,0.6126 -0.14188,0.92605 -0.51386,0.51386 -4.06558,0.59004 -4.557866,0.0977 z m 7.662996,0.0851 c -0.19463,-0.12337 -0.31369,-0.5085 -0.26458,-0.85584 0.0866,-0.61227 0.16196,-0.63154 2.47054,-0.63154 2.30859,0 2.38398,0.0193 2.47055,0.63154 0.12425,0.8788 -0.33628,1.08015 -2.47055,1.08015 -1.01864,0 -2.01133,-0.10094 -2.20596,-0.22431 z m 7.34693,-0.18664 c -0.25238,-0.3041 -0.2715,-0.53998 -0.0697,-0.85989 0.223,-0.35354 0.71207,-0.44085 2.46936,-0.44085 1.75729,0 2.24636,0.0873 2.46936,0.44085 0.55367,0.87774 -0.22096,1.27894 -2.46936,1.27894 -1.54937,0 -2.13704,-0.10262 -2.39965,-0.41905 z m 7.67292,0 c -0.25238,-0.3041 -0.2715,-0.53998 -0.0697,-0.85989 0.223,-0.35354 0.71207,-0.44085 2.46936,-0.44085 1.75729,0 2.24636,0.0873 2.46936,0.44085 0.55367,0.87774 -0.22097,1.27894 -2.46936,1.27894 -1.54937,0 -2.13705,-0.10262 -2.39966,-0.41905 z m 7.73432,0.18664 c -0.19463,-0.12337 -0.3137,-0.5085 -0.26458,-0.85584 0.0866,-0.61227 0.16195,-0.63154 2.47054,-0.63154 2.30858,0 2.38397,0.0193 2.47054,0.63154 0.12426,0.8788 -0.33627,1.08015 -2.47054,1.08015 -1.01865,0 -2.01133,-0.10094 -2.20596,-0.22431 z m 7.52765,-0.17224 c -0.32281,-0.32281 -0.35971,-0.54943 -0.15248,-0.93664 0.23716,-0.44314 0.57111,-0.51079 2.52132,-0.51079 1.83712,0 2.27831,0.0791 2.41405,0.43284 0.35335,0.92082 -0.27492,1.28327 -2.36383,1.3637 -1.55354,0.0598 -2.08715,-0.0172 -2.41906,-0.34911 z m 7.49219,-0.0144 c -0.25238,-0.3041 -0.2715,-0.53998 -0.0697,-0.8599 0.22301,-0.35354 0.71208,-0.44085 2.46937,-0.44085 1.75729,0 2.24636,0.0873 2.46936,0.44085 0.55367,0.87774 -0.22097,1.27894 -2.46936,1.27894 -1.54938,0 -2.13705,-0.10262 -2.39966,-0.41905 z m 7.70188,0.0349 c -0.17536,-0.21129 -0.2776,-0.59825 -0.22721,-0.8599 0.0801,-0.41583 0.39099,-0.47573 2.46924,-0.47573 2.30477,0 2.38036,0.0193 2.46692,0.63154 0.12451,0.88057 -0.33507,1.07954 -2.50429,1.0842 -1.32976,0.003 -1.97985,-0.10923 -2.20466,-0.38011 z m 7.70536,0.15175 c -0.19463,-0.12337 -0.31369,-0.5085 -0.26458,-0.85584 0.0866,-0.61219 0.16215,-0.63154 2.46692,-0.63154 2.07825,0 2.38916,0.0599 2.46924,0.47573 0.17886,0.92872 -0.44003,1.24429 -2.43187,1.24001 -1.03721,-0.002 -2.04508,-0.10499 -2.23971,-0.22836 z m 7.34693,-0.18664 c -0.25238,-0.3041 -0.2715,-0.53998 -0.0697,-0.8599 0.223,-0.35354 0.71207,-0.44085 2.46937,-0.44085 1.75729,0 2.24636,0.0873 2.46936,0.44085 0.55367,0.87774 -0.22097,1.27894 -2.46936,1.27894 -1.54938,0 -2.13705,-0.10262 -2.39966,-0.41905 z m 7.70187,0.0349 c -0.17535,-0.21129 -0.27789,-0.59825 -0.22785,-0.8599 0.0778,-0.40711 0.42233,-0.48673 2.38839,-0.55196 2.05811,-0.0683 2.32646,-0.022 2.57618,0.44464 0.21285,0.39772 0.18058,0.61907 -0.13648,0.93613 -0.56575,0.56576 -4.13647,0.58989 -4.60024,0.0311 z m 9.23147,-0.0349 c -0.25239,-0.3041 -0.27151,-0.53998 -0.0697,-0.8599 0.23905,-0.37898 0.82692,-0.44084 4.18914,-0.44084 3.36223,0 3.95011,0.0619 4.18916,0.44084 0.20179,0.31992 0.18268,0.5558 -0.0697,0.8599 -0.28756,0.34648 -1.00092,0.41904 -4.11945,0.41904 -3.11853,0 -3.83188,-0.0726 -4.11944,-0.41905 z m -91.016673,-8.2021 c -0.252381,-0.3041 -0.271502,-0.53998 -0.0697,-0.85989 0.225502,-0.3575 0.722832,-0.44084 2.630491,-0.44084 2.278189,0 2.35523,0.0199 2.441707,0.63153 0.125854,0.89009 -0.334944,1.07958 -2.636586,1.08421 -1.52223,0.003 -2.103581,-0.0989 -2.365907,-0.41501 z m 7.9375,0 c -0.252381,-0.3041 -0.271502,-0.53998 -0.0697,-0.85989 0.225502,-0.3575 0.722832,-0.44084 2.630493,-0.44084 2.27819,0 2.35523,0.0199 2.44171,0.63153 0.12585,0.89009 -0.33495,1.07958 -2.63659,1.08421 -1.522231,0.003 -2.103582,-0.0989 -2.365908,-0.41501 z m 7.937503,0 c -0.25238,-0.3041 -0.2715,-0.53998 -0.0697,-0.85989 0.2255,-0.3575 0.72283,-0.44084 2.63049,-0.44084 2.27819,0 2.35523,0.0199 2.44171,0.63153 0.12585,0.89009 -0.33495,1.07958 -2.63659,1.08421 -1.52223,0.003 -2.10358,-0.0989 -2.36591,-0.41501 z m 7.9375,0 c -0.25238,-0.3041 -0.2715,-0.53998 -0.0697,-0.85989 0.2255,-0.3575 0.72283,-0.44084 2.63049,-0.44084 2.27819,0 2.35523,0.0199 2.4417,0.63153 0.12586,0.89009 -0.33494,1.07958 -2.63658,1.08421 -1.52223,0.003 -2.10358,-0.0989 -2.36591,-0.41501 z m 7.9375,0 c -0.25238,-0.3041 -0.2715,-0.53998 -0.0697,-0.85989 0.2255,-0.3575 0.72283,-0.44084 2.63049,-0.44084 2.27819,0 2.35523,0.0199 2.4417,0.63153 0.12586,0.89009 -0.33494,1.07958 -2.63658,1.08421 -1.52223,0.003 -2.10358,-0.0989 -2.36591,-0.41501 z m 7.9375,0 c -0.25238,-0.3041 -0.2715,-0.53998 -0.0697,-0.85989 0.2255,-0.3575 0.72283,-0.44084 2.63049,-0.44084 2.27819,0 2.35523,0.0199 2.4417,0.63153 0.12586,0.89009 -0.33494,1.07958 -2.63658,1.08421 -1.52223,0.003 -2.10358,-0.0989 -2.36591,-0.41501 z m 7.9375,0 c -0.25238,-0.3041 -0.2715,-0.53998 -0.0697,-0.85989 0.2255,-0.3575 0.72283,-0.44084 2.63049,-0.44084 2.27819,0 2.35523,0.0199 2.4417,0.63153 0.12586,0.89009 -0.33494,1.07958 -2.63658,1.08421 -1.52223,0.003 -2.10358,-0.0989 -2.36591,-0.41501 z m 7.9375,0 c -0.25238,-0.3041 -0.2715,-0.53998 -0.0697,-0.85989 0.2255,-0.3575 0.72283,-0.44084 2.63049,-0.44084 2.27819,0 2.35523,0.0199 2.4417,0.63153 0.12586,0.89009 -0.33494,1.07958 -2.63658,1.08421 -1.52223,0.003 -2.10358,-0.0989 -2.36591,-0.41501 z m 8.73125,0 c -0.25238,-0.3041 -0.2715,-0.53998 -0.0697,-0.85989 0.223,-0.35355 0.71207,-0.44086 2.46936,-0.44086 1.75729,0 2.24636,0.0873 2.46936,0.44085 0.55367,0.87775 -0.22097,1.27895 -2.46936,1.27895 -1.54937,0 -2.13705,-0.10264 -2.39966,-0.41905 z m 8.79265,0.18664 c -0.19463,-0.12337 -0.31369,-0.5085 -0.26458,-0.85584 0.0865,-0.61161 0.16352,-0.63153 2.44171,-0.63153 1.90766,0 2.40498,0.0833 2.63049,0.44084 0.55168,0.87458 -0.22157,1.27934 -2.43562,1.2749 -1.10996,-0.002 -2.17737,-0.105 -2.372,-0.22837 z m 8.40527,-0.18664 c -0.25189,-0.30351 -0.27136,-0.54061 -0.0706,-0.85989 0.21669,-0.34462 0.7732,-0.45748 2.54963,-0.51708 2.0333,-0.0682 2.30177,-0.0214 2.55121,0.44465 0.21285,0.39772 0.18058,0.61906 -0.13649,0.93613 -0.59412,0.59412 -4.39999,0.59116 -4.89377,-0.004 z m 8.7602,0.0349 c -0.17535,-0.21129 -0.2776,-0.59824 -0.22721,-0.85989 0.0839,-0.43551 0.46917,-0.47572 4.55707,-0.47572 3.87958,0 4.50194,0.0578 4.74353,0.44083 0.2018,0.31991 0.18268,0.5558 -0.0697,0.8599 -0.49329,0.59438 -8.51355,0.62545 -9.00368,0.0349 z m -88.635417,-8.20207 c -0.175355,-0.2113 -0.277601,-0.59824 -0.227211,-0.85991 0.0805,-0.41798 0.395814,-0.47574 2.597912,-0.47574 2.202098,0 2.517415,0.0577 2.597912,0.47574 0.182679,0.94859 -0.434361,1.24406 -2.597912,1.24406 -1.470935,0 -2.142141,-0.10877 -2.370701,-0.38417 z m 7.937497,0 c -0.17535,-0.2113 -0.2776,-0.59824 -0.22721,-0.85991 0.0805,-0.41798 0.39582,-0.47574 2.59792,-0.47574 2.20209,0 2.51741,0.0577 2.59791,0.47574 0.18268,0.94859 -0.43436,1.24406 -2.59791,1.24406 -1.47094,0 -2.14215,-0.10877 -2.37071,-0.38417 z m 7.9375,0 c -0.17535,-0.2113 -0.2776,-0.59824 -0.22721,-0.85991 0.0805,-0.41798 0.39582,-0.47574 2.59792,-0.47574 2.20209,0 2.51741,0.0577 2.59791,0.47574 0.18268,0.94859 -0.43436,1.24406 -2.59791,1.24406 -1.47094,0 -2.14215,-0.10877 -2.37071,-0.38417 z m 7.9375,0 c -0.17535,-0.2113 -0.2776,-0.59824 -0.22721,-0.85991 0.0805,-0.41798 0.39582,-0.47574 2.59791,-0.47574 2.2021,0 2.51742,0.0577 2.59792,0.47574 0.18268,0.94859 -0.43436,1.24406 -2.59792,1.24406 -1.47093,0 -2.14214,-0.10877 -2.3707,-0.38417 z m 7.9375,0 c -0.17535,-0.2113 -0.2776,-0.59824 -0.22721,-0.85991 0.0805,-0.41798 0.39582,-0.47574 2.59791,-0.47574 2.2021,0 2.51742,0.0577 2.59792,0.47574 0.18268,0.94859 -0.43436,1.24406 -2.59792,1.24406 -1.47093,0 -2.14214,-0.10877 -2.3707,-0.38417 z m 7.9375,0 c -0.17535,-0.2113 -0.2776,-0.59824 -0.22721,-0.85991 0.0805,-0.41798 0.39582,-0.47574 2.59791,-0.47574 2.2021,0 2.51742,0.0577 2.59792,0.47574 0.18268,0.94859 -0.43436,1.24406 -2.59792,1.24406 -1.47093,0 -2.14214,-0.10877 -2.3707,-0.38417 z m 7.9375,0 c -0.17535,-0.2113 -0.2776,-0.59824 -0.22721,-0.85991 0.0805,-0.41798 0.39582,-0.47574 2.59791,-0.47574 2.2021,0 2.51742,0.0577 2.59792,0.47574 0.18268,0.94859 -0.43436,1.24406 -2.59792,1.24406 -1.47093,0 -2.14214,-0.10877 -2.3707,-0.38417 z m 7.9375,0 c -0.17535,-0.2113 -0.2776,-0.59824 -0.22721,-0.85991 0.0805,-0.41798 0.39582,-0.47574 2.59791,-0.47574 2.2021,0 2.51742,0.0577 2.59792,0.47574 0.18268,0.94859 -0.43436,1.24406 -2.59792,1.24406 -1.47093,0 -2.14214,-0.10877 -2.3707,-0.38417 z m 7.9375,0 c -0.17535,-0.2113 -0.2776,-0.59824 -0.22721,-0.85991 0.0805,-0.41798 0.39582,-0.47574 2.59791,-0.47574 2.2021,0 2.51742,0.0577 2.59792,0.47574 0.18268,0.94859 -0.43436,1.24406 -2.59792,1.24406 -1.47093,0 -2.14214,-0.10877 -2.3707,-0.38417 z m 7.9375,0 c -0.17535,-0.2113 -0.2776,-0.59824 -0.22721,-0.85991 0.0805,-0.41798 0.39582,-0.47574 2.59791,-0.47574 2.2021,0 2.51742,0.0577 2.59792,0.47574 0.18268,0.94859 -0.43436,1.24406 -2.59792,1.24406 -1.47093,0 -2.14213,-0.10877 -2.3707,-0.38417 z m 7.9375,0 c -0.17535,-0.21132 -0.2776,-0.59828 -0.22721,-0.85994 0.0805,-0.41798 0.39582,-0.47573 2.59791,-0.47573 2.2021,0 2.51742,0.0577 2.59792,0.47573 0.18268,0.94859 -0.43436,1.24407 -2.59792,1.24407 -1.47093,0 -2.14213,-0.10878 -2.3707,-0.38417 z m 9.40396,0.036 c -0.26191,-0.19152 -0.43187,-0.57848 -0.37767,-0.8599 0.0928,-0.48174 0.35977,-0.51168 4.56399,-0.51168 4.02336,0 4.49451,0.0474 4.75888,0.47852 0.23493,0.38314 0.19105,0.55453 -0.22018,0.8599 -0.70453,0.52316 -8.01688,0.55096 -8.72502,0.0332 z M 90.899009,144.90212 c -0.206352,-0.38557 -0.171567,-0.6126 0.14188,-0.92604 0.586422,-0.58643 4.137625,-0.58603 4.724177,5.2e-4 0.981806,0.9818 0.220465,1.43631 -2.405959,1.43631 -1.889723,0 -2.223863,-0.0694 -2.460098,-0.5108 z m 13.565801,0.078 c -0.37244,-0.97053 0.25795,-1.28695 2.56395,-1.28695 2.30599,0 2.93638,0.31642 2.56395,1.28695 -0.13686,0.35667 -0.58805,0.43284 -2.56395,0.43284 -1.9759,0 -2.42709,-0.0762 -2.56395,-0.43284 z m 7.9375,0 c -0.37244,-0.97053 0.25795,-1.28695 2.56395,-1.28695 2.30599,0 2.93638,0.31642 2.56395,1.28695 -0.13687,0.35667 -0.58805,0.43284 -2.56395,0.43284 -1.9759,0 -2.42709,-0.0762 -2.56395,-0.43284 z m 7.9375,0 c -0.37244,-0.97053 0.25795,-1.28695 2.56395,-1.28695 2.30599,0 2.93638,0.31642 2.56395,1.28695 -0.13687,0.35667 -0.58805,0.43284 -2.56395,0.43284 -1.9759,0 -2.42709,-0.0762 -2.56395,-0.43284 z m 7.9375,0 c -0.37244,-0.97053 0.25795,-1.28695 2.56395,-1.28695 2.30599,0 2.93638,0.31642 2.56395,1.28695 -0.13687,0.35667 -0.58805,0.43284 -2.56395,0.43284 -1.9759,0 -2.42709,-0.0762 -2.56395,-0.43284 z m 7.9375,0 c -0.37244,-0.97053 0.25795,-1.28695 2.56395,-1.28695 2.30599,0 2.93638,0.31642 2.56395,1.28695 -0.13687,0.35667 -0.58805,0.43284 -2.56395,0.43284 -1.9759,0 -2.42709,-0.0762 -2.56395,-0.43284 z m 7.9375,0 c -0.37244,-0.97053 0.25795,-1.28695 2.56395,-1.28695 2.30599,0 2.93638,0.31642 2.56395,1.28695 -0.13687,0.35667 -0.58805,0.43284 -2.56395,0.43284 -1.9759,0 -2.42709,-0.0762 -2.56395,-0.43284 z m 7.9375,0 c -0.37244,-0.97053 0.25795,-1.28695 2.56395,-1.28695 2.30599,0 2.93638,0.31642 2.56395,1.28695 -0.13687,0.35667 -0.58805,0.43284 -2.56395,0.43284 -1.9759,0 -2.42709,-0.0762 -2.56395,-0.43284 z m 7.9375,0 c -0.37244,-0.97053 0.25795,-1.28695 2.56395,-1.28695 2.30599,0 2.93638,0.31642 2.56395,1.28695 -0.13687,0.35667 -0.58805,0.43284 -2.56395,0.43284 -1.9759,0 -2.42709,-0.0762 -2.56395,-0.43284 z m 8.032,0.25645 c -0.35753,-0.35754 -0.16091,-1.13619 0.35689,-1.41331 0.2933,-0.15697 1.38216,-0.25046 2.41968,-0.20775 1.97783,0.0814 2.60396,0.46002 2.25683,1.36461 -0.13649,0.35569 -0.58416,0.43284 -2.51155,0.43284 -1.29,0 -2.42483,-0.0794 -2.52185,-0.17639 z m 7.87881,-0.39876 c -0.3015,-0.94995 0.50966,-1.30834 2.76298,-1.22076 2.05291,0.0798 2.68059,0.44713 2.32911,1.36307 -0.13668,0.35619 -0.58611,0.43284 -2.53782,0.43284 -2.20256,0 -2.38474,-0.041 -2.55427,-0.57515 z m 9.32862,0.40828 c -0.34464,-0.34464 -0.18931,-1.3627 0.23261,-1.52461 0.23018,-0.0883 1.21946,-0.1606 2.19839,-0.1606 2.07323,0 2.99514,0.4551 2.51451,1.24127 -0.23819,0.38962 -0.70747,0.49258 -2.52607,0.55418 -1.22844,0.0416 -2.31719,-0.008 -2.41944,-0.11024 z m 0.60785,-9.91376 c 0,-1.7836 -0.0455,-1.924 -0.89959,-2.77812 l -0.89958,-0.89963 h -9.69688 c -12.0385,0 -11.78728,-0.0786 -11.78728,3.68677 v 1.86948 h 11.64166 11.64167 z"
       id="path858"
       inkscape:connector-curvature="0" />
  </g>
</svg>
