<?xml version="1.0" encoding="UTF-8" standalone="no"?>
<!-- Created with Inkscape (http://www.inkscape.org/) -->

<svg
   xmlns:dc="http://purl.org/dc/elements/1.1/"
   xmlns:cc="http://creativecommons.org/ns#"
   xmlns:rdf="http://www.w3.org/1999/02/22-rdf-syntax-ns#"
   xmlns:svg="http://www.w3.org/2000/svg"
   xmlns="http://www.w3.org/2000/svg"
   xmlns:sodipodi="http://sodipodi.sourceforge.net/DTD/sodipodi-0.dtd"
   xmlns:inkscape="http://www.inkscape.org/namespaces/inkscape"
   version="1.1"
   viewBox="0 0 233.9 101.4"
   id="svg56"
   sodipodi:docname="opengl.svg"
   inkscape:version="0.92.4 (5da689c313, 2019-01-14)">
  <defs
     id="defs60" />
  <sodipodi:namedview
     pagecolor="#ffffff"
     bordercolor="#666666"
     borderopacity="1"
     objecttolerance="10"
     gridtolerance="10"
     guidetolerance="10"
     inkscape:pageopacity="0"
     inkscape:pageshadow="2"
     inkscape:window-width="1920"
     inkscape:window-height="1012"
     id="namedview58"
     showgrid="false"
     inkscape:zoom="1.8380544"
     inkscape:cx="64.077453"
     inkscape:cy="36.086993"
     inkscape:window-x="0"
     inkscape:window-y="32"
     inkscape:window-maximized="1"
     inkscape:current-layer="g52" />
  <metadata
     id="metadata2">
    <rdf:RDF>
      <cc:Work
         rdf:about="">
        <dc:format>image/svg+xml</dc:format>
        <dc:type
           rdf:resource="http://purl.org/dc/dcmitype/StillImage" />
        <dc:title />
      </cc:Work>
    </rdf:RDF>
  </metadata>
  <g
     transform="translate(-148.79884,-505.38042)"
     id="g54">
    <g
       fill-rule="evenodd"
       transform="matrix(0.97010973,0,0,0.97010973,7.9426941,16.621184)"
       id="g52">
      <path
         inkscape:connector-curvature="0"
         style="fill:#ffffff;stroke-width:1"
         d="m 379,573.7 v 0.376 h -1.182 v 3.265 h -0.4675 v -3.265 h -1.192 V 573.7 h 2.842 z m 1.11,0 0.9075,2.907 h 0.0188 l 0.9438,-2.907 h 0.6975 v 3.641 h -0.4125 v -3.265 h -0.0188 l -1.072,3.265 h -0.3112 l -1.01,-3.265 h -0.0175 v 3.265 h -0.4125 V 573.7 h 0.6875"
         id="path6" />
      <path
         inkscape:connector-curvature="0"
         style="fill:#ffffff;stroke-width:1"
         d="m 195.3,578.5 c -11.39,0 -16.99,-6.938 -19.18,-14.19 2.466,11.77 15.79,23.29 57.84,28.42 39.72,4.854 65.61,-7.316 74.34,-12.98 0,0 5.901,-2.596 2.36,1.416 0,0 -25.02,23.13 -74.1,23.36 -49.09,0.2363 -88.03,-24.54 -87.79,-49.56 -0.2358,-25.02 38.7,-49.8 87.79,-49.56 49.09,0.2362 74.1,23.36 74.1,23.36 3.541,4.012 -2.36,1.416 -2.36,1.416 -8.731,-5.664 -34.51,-16.82 -74.34,-12.98 -39.18,3.775 -51.96,17.09 -56.21,26.05 -1.635,3.451 -2.374,6.706 -2.558,9.984 1.058,-8.556 6.376,-18.65 20.11,-18.65 15.56,0 20.32,12.95 20.32,21.95 0,8.999 -4.761,21.94 -20.32,21.94 z m 158.2,-8.65 h 20.73 v 7.547 h -29.44 v -41.68 h 8.709 v 34.14 z m -31.98,-14.92 h 17.42 v 22.47 h -5.805 l -0.8712,-5.224 c -2.206,2.554 -5.399,6.328 -13.00001,6.328 -10.03999,0 -19.15999,-7.199 -19.15999,-21.83 0,-11.38 6.328,-22.12 20.38,-22.06 12.77,0 17.82,8.302 18.29,14.05 h -8.709 c 0,-1.625 -2.961,-6.85 -9.115,-6.85 -6.211,0 -11.96,4.296 -11.96,14.98 0,11.38 6.211,14.34 12.13,14.34 1.915,0 8.301,-0.7554 10.1,-9.173 h -9.695 v -7.025 z m -126.2,-15.3 c -9.057,0 -14.51,7.141 -14.51,16.95 0,9.811 5.458,16.95 14.51,16.95 9.057,0 14.51,-7.141 14.51,-16.95 0,-9.811 -5.458,-16.95 -14.51,-16.95 z m 23.44,11.14 h 4.231 v 3.772 h 0.1015 c 1.071,-1.529 3.109,-4.537 7.951,-4.537 7.085,0 12.13,6.005 12.13,13.5 0,6.371 -3.673,14.69 -12.75,14.69 -3.568,0 -5.913,-1.682 -7.084,-3.568 h -0.1025 v 13.35 h -4.485 v -37.21 z m 11.33,23.55 c 4.893,0 8.209,-4.24 8.209,-10.1 0,-3.415 -1.38,-10.18 -8.312,-10.18 -6.473,0 -7.187,6.983 -7.187,11.32 0,7.085 4.435,8.971 7.289,8.971 z m 40.23,-5.25 c -0.1538,1.274 -1.377,5.046 -4.741,7.289 -1.223,0.8154 -2.956,1.835 -7.237,1.835 -7.492,0 -11.93,-5.658 -11.93,-13.35 0,-8.257 3.976,-14.83 12.79,-14.83 7.697,0 11.47,6.117 11.47,15.55 h -19.47 c 0,5.555 2.599,8.766 7.748,8.766 4.23,0 6.728,-3.262 6.88,-5.25 h 4.486 z m -4.754,-7.085 c -0.2544,-4.129 -1.987,-7.951 -7.441,-7.951 -4.128,0 -7.391,3.823 -7.391,7.951 h 14.83 z m 29.9,15.44 h -4.485 v -16.41 c 0,-4.638 -1.326,-6.983 -5.709,-6.983 -2.549,0 -7.034,1.631 -7.034,8.869 v 14.53 h -4.48501 v -26.66 h 4.23001 v 3.772 h 0.10246 c 0.9675,-1.427 3.466,-4.537 8.052,-4.537 4.129,0 9.328,1.682 9.328,9.277 v 18.14"
         id="path50" />
    </g>
  </g>
</svg>
