<?xml version="1.0" encoding="UTF-8" standalone="no"?>
<!-- Created with Inkscape (http://www.inkscape.org/) -->

<svg
   xmlns:dc="http://purl.org/dc/elements/1.1/"
   xmlns:cc="http://creativecommons.org/ns#"
   xmlns:rdf="http://www.w3.org/1999/02/22-rdf-syntax-ns#"
   xmlns:svg="http://www.w3.org/2000/svg"
   xmlns="http://www.w3.org/2000/svg"
   xmlns:sodipodi="http://sodipodi.sourceforge.net/DTD/sodipodi-0.dtd"
   xmlns:inkscape="http://www.inkscape.org/namespaces/inkscape"
   width="78.052086mm"
   height="60.748299mm"
   viewBox="0 0 78.052086 60.748299"
   version="1.1"
   id="svg8"
   sodipodi:docname="output.svg"
   inkscape:version="0.92.4 (5da689c313, 2019-01-14)">
  <defs
     id="defs2" />
  <sodipodi:namedview
     id="base"
     pagecolor="#ffffff"
     bordercolor="#666666"
     borderopacity="1.0"
     inkscape:pageopacity="0.0"
     inkscape:pageshadow="2"
     inkscape:zoom="0.98994949"
     inkscape:cx="-35.669312"
     inkscape:cy="319.69788"
     inkscape:document-units="mm"
     inkscape:current-layer="layer1"
     showgrid="false"
     inkscape:window-width="1920"
     inkscape:window-height="1012"
     inkscape:window-x="0"
     inkscape:window-y="32"
     inkscape:window-maximized="1"
     fit-margin-top="0"
     fit-margin-left="0"
     fit-margin-right="0"
     fit-margin-bottom="0" />
  <metadata
     id="metadata5">
    <rdf:RDF>
      <cc:Work
         rdf:about="">
        <dc:format>image/svg+xml</dc:format>
        <dc:type
           rdf:resource="http://purl.org/dc/dcmitype/StillImage" />
        <dc:title></dc:title>
      </cc:Work>
    </rdf:RDF>
  </metadata>
  <g
     inkscape:label="Layer 1"
     inkscape:groupmode="layer"
     id="layer1"
     transform="translate(141.83557,-118.53854)">
    <path
       style="fill:#ffffff;stroke-width:0.26458335"
       d="m -118.63161,178.94291 c -0.32817,-0.32817 -0.44056,-3.02271 -0.1569,-3.7619 0.13816,-0.36005 0.8219,-0.41851 4.89479,-0.41851 h 4.73419 v -2.77611 -2.77611 l -16.33802,-0.0682 -16.33802,-0.0682 v -25.26764 -25.2677 h 39.02604 39.026048 v 25.2677 25.26771 l -16.338021,0.0682 -16.338022,0.0682 v 2.77611 2.77611 h 4.734192 c 4.072891,0 4.756627,0.0585 4.894792,0.41851 0.283655,0.73919 0.17127,3.43373 -0.1569,3.7619 -0.458473,0.45848 -31.185699,0.45848 -31.644169,0 z m 30.374169,-2.0134 v -0.74342 h -14.552089 -14.55208 v 0.74342 0.7434 h 14.55208 14.552089 z m -9.789584,-4.81285 v -2.64583 h -4.762505 -4.7625 v 2.64583 2.64584 h 4.7625 4.762505 z m 32.808335,-6.47243 v -2.23909 l -37.57084,-0.0135 -37.57083,-0.0134 v 2.25255 2.25255 h 37.57083 37.57084 v -2.2391 z m -16.646804,-4.70621 c 2.230099,-8.17033 3.600763,-13.5966 3.50048,-13.85794 -0.213333,-0.55593 -0.82055,-0.61967 -2.127009,-0.22325 -2.597587,0.78818 -4.165627,0.33815 -4.67237,-1.34098 -0.09568,-0.31704 1.200502,-5.63278 3.144591,-12.89622 1.819048,-6.79627 3.307361,-12.41739 3.307361,-12.49137 0,-0.074 -13.870782,-0.13451 -30.823959,-0.13451 h -30.82396 v 21.03437 21.03438 h 29.09397 29.093969 z m -54.083286,-2.48964 c -0.098,-0.098 -0.17825,-3.13496 -0.17825,-6.74873 v -6.57049 h 17.86392 17.86392 l -0.0707,6.68073 -0.0707,6.68073 -17.61498,0.068 c -9.68824,0.0374 -17.69519,-0.0122 -17.79323,-0.11025 z m 34.15703,-6.63849 -0.0717,-5.22552 h -16.40416 -16.40417 l -0.0717,5.22552 -0.0717,5.22552 h 16.54765 16.54764 z m -34.7639,-9.44618 c -0.0811,-0.21132 -0.0703,-0.50897 0.0239,-0.66146 0.26853,-0.4345 27.03254,-0.38187 27.19263,0.0535 0.3625,0.98574 0.27419,0.99219 -13.58911,0.99219 -11.54058,0 -13.50122,-0.0553 -13.62744,-0.3842 z m 0,-3.70417 c -0.0811,-0.21131 -0.0703,-0.50897 0.0239,-0.66146 0.26853,-0.4345 27.03254,-0.38187 27.19263,0.0535 0.3625,0.98574 0.27419,0.99218 -13.58911,0.99218 -11.54058,0 -13.50122,-0.0553 -13.62744,-0.3842 z m 0,-3.70417 c -0.0811,-0.21131 -0.0703,-0.50897 0.0239,-0.66146 0.26853,-0.4345 27.03254,-0.38186 27.19263,0.0535 0.3625,0.98574 0.27419,0.99219 -13.58911,0.99219 -11.54058,0 -13.50122,-0.0553 -13.62744,-0.38421 z m 0,-3.70416 c -0.0811,-0.21132 -0.0703,-0.50897 0.0239,-0.66146 0.26853,-0.4345 27.03254,-0.38187 27.19263,0.0535 0.3625,0.98574 0.27419,0.99219 -13.58911,0.99219 -11.54058,0 -13.50122,-0.0553 -13.62744,-0.3842 z m 0.5401,-3.67569 c -0.0756,-0.19703 -0.10186,-1.17986 -0.0583,-2.18406 l 0.0791,-1.82584 h 26.85521 26.855206 v 2.11667 2.11666 l -26.796886,0.0674 c -22.33708,0.0562 -26.81976,0.008 -26.93435,-0.29084 z m 52.408317,-1.89323 v -0.79375 H -109.1559 c -24.4168,0 -25.53269,0.0208 -25.62082,0.47847 -0.25277,1.31252 -1.64224,1.24885 25.67554,1.17649 l 25.473947,-0.0675 z m 15.217985,35.78489 c 0.141727,-0.32742 0.91308,-3.05745 1.714119,-6.06674 1.062612,-3.99193 1.456439,-5.94151 1.456439,-7.20989 0,-0.95616 -0.02977,-1.73706 -0.06615,-1.73533 -0.03638,0.002 -0.72099,0.17891 -1.521354,0.39373 -2.826933,0.75878 -4.22982,0.36656 -4.64797,-1.29948 -0.1064,-0.42394 0.953981,-4.81638 3.03598,-12.576 1.75972,-6.55847 3.19949,-12.16193 3.19949,-12.45212 0,-0.51137 -0.182216,-0.5276 -5.922267,-0.5276 -5.41637,0 -5.932917,0.0395 -6.046939,0.46302 -6.234684,23.155 -6.621203,24.71621 -6.21878,25.11863 0.359796,0.3598 0.555781,0.35748 1.861304,-0.022 0.802542,-0.2333 1.892737,-0.42419 2.422658,-0.42419 1.254545,0 2.262357,0.9569 2.262357,2.14807 0,0.64171 -2.558162,10.81322 -3.60208,14.32225 -0.128331,0.43137 0.270769,0.46302 5.83888,0.46302 5.945247,0 5.977981,-0.003 6.234309,-0.59531 z m 3.150211,-2.38125 -0.02035,-2.97656 -0.771054,2.77813 c -0.42408,1.52796 -0.772112,2.86742 -0.773404,2.97656 -0.0013,0.10914 0.354841,0.19844 0.791404,0.19844 h 0.79375 l -0.02035,-2.97657 z m -1.501007,-13.7431 1.521354,-0.31954 -0.0209,-8.87675 c -0.01147,-4.88222 -0.06771,-8.75769 -0.124963,-8.61217 -0.239879,0.60974 -4.616635,17.13406 -4.616635,17.42997 0,0.54587 0.632798,0.99324 1.190625,0.84175 0.291041,-0.079 1.213776,-0.28751 2.050521,-0.46326 z"
       id="path826"
       inkscape:connector-curvature="0" />
  </g>
</svg>
