<?xml version="1.0" encoding="UTF-8" standalone="no"?>
<!-- Created with Inkscape (http://www.inkscape.org/) -->

<svg
   xmlns:dc="http://purl.org/dc/elements/1.1/"
   xmlns:cc="http://creativecommons.org/ns#"
   xmlns:rdf="http://www.w3.org/1999/02/22-rdf-syntax-ns#"
   xmlns:svg="http://www.w3.org/2000/svg"
   xmlns="http://www.w3.org/2000/svg"
   xmlns:sodipodi="http://sodipodi.sourceforge.net/DTD/sodipodi-0.dtd"
   xmlns:inkscape="http://www.inkscape.org/namespaces/inkscape"
   width="346.77615"
   height="391.35776"
   id="svg2169"
   sodipodi:version="0.32"
   inkscape:version="0.92.4 (5da689c313, 2019-01-14)"
   version="1.0"
   sodipodi:docname="Python-logo-notext.svg"
   inkscape:output_extension="org.inkscape.output.svg.inkscape">
  <defs
     id="defs2171" />
  <sodipodi:namedview
     id="base"
     pagecolor="#ffffff"
     bordercolor="#666666"
     borderopacity="1.0"
     inkscape:pageopacity="0.0"
     inkscape:pageshadow="2"
     inkscape:zoom="0.98994948"
     inkscape:cx="248.52486"
     inkscape:cy="121.60302"
     inkscape:document-units="px"
     inkscape:current-layer="layer1"
     width="131.10236px"
     height="184.25197px"
     inkscape:window-width="1920"
     inkscape:window-height="1012"
     inkscape:window-x="0"
     inkscape:window-y="32"
     showgrid="false"
     fit-margin-top="0"
     fit-margin-left="0"
     fit-margin-right="0"
     fit-margin-bottom="0"
     inkscape:window-maximized="1" />
  <metadata
     id="metadata2174">
    <rdf:RDF>
      <cc:Work
         rdf:about="">
        <dc:format>image/svg+xml</dc:format>
        <dc:type
           rdf:resource="http://purl.org/dc/dcmitype/StillImage" />
        <dc:title></dc:title>
      </cc:Work>
    </rdf:RDF>
  </metadata>
  <g
     inkscape:label="Calque 1"
     inkscape:groupmode="layer"
     id="layer1"
     transform="translate(-412.17498,-167.66382)">
    <g
       id="g1894"
       transform="matrix(2.0322588,0,0,2.0322588,382.03625,114.61089)"
       style="fill:#ffffff">
      <path
         style="color:#000000;display:inline;overflow:visible;visibility:visible;opacity:1;fill:#ffffff;fill-opacity:1;fill-rule:nonzero;stroke:none;stroke-width:1;stroke-linecap:butt;stroke-linejoin:miter;stroke-miterlimit:4;stroke-dasharray:none;stroke-dashoffset:0;stroke-opacity:1;marker:none;marker-start:none;marker-mid:none;marker-end:none"
         d="M 99.75,67.46875 C 71.718268,67.468752 73.46875,79.625 73.46875,79.625 L 73.5,92.21875 h 26.75 V 96 H 62.875 c 0,0 -17.9375,-2.034276 -17.9375,26.25 -2e-6,28.28427 15.65625,27.28125 15.65625,27.28125 h 9.34375 v -13.125 c 0,0 -0.503652,-15.65625 15.40625,-15.65625 15.9099,0 26.53125,0 26.53125,0 0,0 14.90625,0.24096 14.90625,-14.40625 0,-14.647206 0,-24.21875 0,-24.21875 0,-2e-6 2.26318,-14.65625 -27.03125,-14.65625 z M 85,75.9375 c 2.661429,-2e-6 4.8125,2.151071 4.8125,4.8125 2e-6,2.661429 -2.151071,4.8125 -4.8125,4.8125 -2.661429,2e-6 -4.8125,-2.151071 -4.8125,-4.8125 -2e-6,-2.661429 2.151071,-4.8125 4.8125,-4.8125 z"
         id="path8615"
         inkscape:connector-curvature="0" />
      <path
         id="path8620"
         d="m 100.5461,177.31485 c 28.03174,0 26.28125,-12.15625 26.28125,-12.15625 l -0.0312,-12.59375 h -26.75 v -3.78125 h 37.375 c 0,0 17.9375,2.03427 17.9375,-26.25001 10e-6,-28.284267 -15.65625,-27.281247 -15.65625,-27.281247 h -9.34375 v 13.124997 c 0,0 0.50366,15.65625 -15.40625,15.65625 -15.909902,0 -26.531252,0 -26.531252,0 0,0 -14.90625,-0.24096 -14.90625,14.40626 0,14.6472 0,24.21875 0,24.21875 0,0 -2.26318,14.65625 27.031252,14.65625 z m 14.75,-8.46875 c -2.66143,0 -4.8125,-2.15107 -4.8125,-4.8125 0,-2.66143 2.15107,-4.8125 4.8125,-4.8125 2.66143,0 4.8125,2.15107 4.8125,4.8125 1e-5,2.66143 -2.15107,4.8125 -4.8125,4.8125 z"
         style="color:#000000;display:inline;overflow:visible;visibility:visible;opacity:1;fill:#ffffff;fill-opacity:1;fill-rule:nonzero;stroke:none;stroke-width:1;stroke-linecap:butt;stroke-linejoin:miter;stroke-miterlimit:4;stroke-dasharray:none;stroke-dashoffset:0;stroke-opacity:1;marker:none;marker-start:none;marker-mid:none;marker-end:none"
         inkscape:connector-curvature="0" />
    </g>
    <path
       style="fill:#ffffff;stroke-width:0.43497768"
       d="m 588.37004,167.67353 c -8.24467,-0.185 -16.53162,2.27257 -23.46915,7.40901 -2.85323,2.11249 -8.06629,7.3309 -11.42154,11.43163 -8.6595,10.58357 -12.19648,20.97694 -9.85289,28.95607 2.99074,10.18214 15.00052,17.58988 32.36605,19.96496 1.55504,0.21277 6.84032,0.32797 11.7447,0.2592 10.2537,-0.14391 15.25692,-0.94008 22.99116,-3.66581 16.55723,-5.83513 23.76632,-17.17877 19.41963,-30.55837 -2.5388,-7.81468 -10.80606,-19.09653 -18.56462,-25.33743 -6.76781,-5.44395 -14.96865,-8.27426 -23.21334,-8.45926 z m -113.32658,80.01801 c -1.06254,-0.005 -2.16921,0.0155 -3.33255,0.0607 -8.8475,0.33665 -14.49402,1.8247 -22.82623,6.01204 -19.14702,9.62229 -31.63025,28.20608 -35.88372,53.41828 -1.11091,6.58494 -1.09831,29.2106 0.0202,36.7926 3.54171,24.00856 11.36682,42.78203 24.30398,58.30601 1.69525,2.03423 3.14545,3.63408 3.22145,3.55807 0.076,-0.076 -0.14942,-1.2065 -0.49819,-2.51118 -1.05804,-3.95882 -2.74661,-13.02279 -3.53115,-18.95172 -1.0352,-7.81297 -1.03448,-24.87873 0,-32.35259 0.96604,-6.97935 2.22052,-13.0125 3.84421,-18.48382 8.67477,-29.23098 28.12816,-53.54177 56.13817,-70.15841 3.05026,-1.80953 5.54749,-3.47754 5.54749,-3.70618 2e-5,-0.90996 -6.04175,-6.26033 -8.59728,-7.61436 -5.79483,-3.07044 -10.96864,-4.33828 -18.40639,-4.36934 z m 221.03498,0 c -7.43778,0.031 -12.61158,1.29889 -18.40638,4.36933 -2.55555,1.35403 -8.59392,6.7044 -8.59392,7.61436 0,0.22864 2.49384,1.89665 5.54412,3.70619 10.17383,6.03549 20.85775,14.45527 28.41412,22.39871 17.61512,18.51751 27.99975,40.31384 31.5649,66.24351 0.9366,6.81202 1.05692,23.70481 0.2188,30.66611 -0.86983,7.22509 -2.87107,17.83924 -4.24478,22.50981 -0.12306,0.41865 -0.13891,0.76075 -0.0336,0.76075 0.50916,0 6.70788,-7.93144 9.59705,-12.27991 9.54041,-14.35908 15.15742,-29.95782 17.97551,-49.92414 1.11097,-7.87352 1.1172,-30.01169 0.0103,-36.57381 -4.25348,-25.2122 -16.7367,-43.79598 -35.88372,-53.41828 -8.33217,-4.18734 -13.97874,-5.67539 -22.82622,-6.01204 -1.16335,-0.0443 -2.27336,-0.065 -3.33592,-0.0607 z M 477.84076,429.15009 c -0.36317,0.36316 -1.36758,5.11535 -2.17793,10.30395 -1.09077,6.986 -1.08563,24.40903 0.0103,32.40307 3.95237,28.83509 14.96638,53.3068 31.33598,69.61981 7.49937,7.47341 13.68915,11.79203 22.20348,15.49127 2.62074,1.13864 4.84352,1.98988 4.94159,1.89181 0.0979,-0.0979 -0.21823,-0.82231 -0.70353,-1.61242 -1.78923,-2.9132 -5.87875,-11.50192 -7.70862,-16.18807 -5.66006,-14.49508 -8.75884,-29.71776 -9.21665,-45.27543 l -0.25583,-8.70164 -4.13035,-4.56793 c -12.16981,-13.45361 -20.78494,-26.09985 -29.05369,-42.64979 -1.77263,-3.54785 -3.22482,-6.53474 -3.22482,-6.63817 0,-0.53859 -1.84112,-4.25505 -2.01973,-4.07646 z m 215.54136,0.18514 c -0.27804,0.16528 -0.97667,1.41792 -1.67974,3.04305 -5.33548,12.33274 -13.48182,26.18049 -22.17655,37.69474 -3.2765,4.33902 -11.52426,13.93615 -13.65331,15.88848 -1.1465,1.0524 -1.14788,1.06889 -1.14788,7.73891 0,19.98547 -5.4523,41.76632 -15.01999,60.01602 l -2.78049,5.30515 1.73696,-0.61265 c 8.43226,-2.97508 17.31895,-8.82978 25.03781,-16.49777 9.73819,-9.674 16.83683,-20.55016 22.54683,-34.53724 8.38234,-20.53318 11.97886,-45.01405 9.59705,-65.31445 -0.68661,-5.85199 -1.86688,-12.1867 -2.36981,-12.72424 -0.0214,-0.0227 -0.0512,-0.0236 -0.0908,0 z"
       id="path826"
       inkscape:connector-curvature="0" />
  </g>
</svg>
